<svg class="icon" style="width: 1em; height: 1em;vertical-align: middle;fill: currentColor;overflow: hidden;" viewBox="0 0 1024 1024" version="1.1" xmlns="http://www.w3.org/2000/svg"><path d="M511.20601293 507.00694684m-504.7489303 0a504.7489303 504.7489303 0 1 0 1009.49786058 0 504.7489303 504.7489303 0 1 0-1009.49786058 0Z" fill="#555273" /><path d="M947.33177403 761.30966634c-21.77793137-21.09737102-64.31295359-62.49812597-147.79502386-143.48480828l-73.04681148 23.592759-146.2070497-165.48959311v23.592759L287.98221633 215.72711471s-20.75709084-22.57191847 0 165.48959309l316.68741876 307.38642722 24.38674605 70.8917037 168.21183452 163.3344853c61.13700527-41.96788857 112.5193121-97.2067041 150.06355837-161.51965768z" fill="#555273" /><path d="M511.65971983 601.37798278C487.49982721 698.35783345 415.13357608 819.72443018 294.44753972 819.72443018c-24.15989262 0-24.15989262 0 0 0 0 0 0-24.27331934 24.15989259-24.27331934 24.15989262-24.27331934 24.15989262-24.27331934-24.15989259 0-24.15989262 0-48.31978523 24.27331934-48.31978526 24.27331934l-24.15989261 0c24.15989262-24.27331934 24.15989261-48.54663869 48.31978525-72.70653131 24.15989262-24.27331934 24.15989262-24.27331934 0 0 0 0-24.15989262 0-24.15989264 24.27331933l0-24.27331933c24.15989262-24.27331934 24.15989262-24.27331934 0 0 0 0-24.15989262 0-24.15989261 24.27331933-24.04646589-121.36659672 72.47967786-218.34644738 217.21218012-266.89308604l0 24.27331934c24.15989262 24.27331934 48.31978523 24.27331934 72.36625113 48.54663869 0.11342672-0.11342672 0.11342672-0.11342672 0.11342673 24.15989259zM559.86607833 504.39813216c24.15989262 0 24.15989262 24.27331934 0 48.54663868l-24.15989261 24.27331935-24.15989262 0-72.36625113-72.70653132c24.15989262-24.27331934 24.15989262-24.27331934 24.15989262-48.54663867 24.15989262 0 48.31978523-24.27331934 48.31978524 1e-8L535.81961243 455.96492021l0 24.27331931c24.04646589-0.11342672 24.04646589-0.11342672 24.0464659 24.15989264zM825.39804369 261.89179217c4.31021558-4.42364231-138.04032542 143.14452812-265.53196535 218.23302063-24.15989262 0-24.15989262 0-24.15989262-24.27331933 120.68603636-96.97985066 0-145.52648937 241.37207273-266.77965934 24.15989262-24.15989262 48.31978523 72.81995803 48.31978524 72.81995804z" fill="#E2EFF1" /></svg>