<svg class="icon" style="width: 1em; height: 1em;vertical-align: middle;fill: currentColor;overflow: hidden;" viewBox="0 0 1024 1024" version="1.1" xmlns="http://www.w3.org/2000/svg"><path d="M327.68 983.04c-159.744 0-286.72-126.976-286.72-286.72s126.976-286.72 286.72-286.72 286.72 126.976 286.72 286.72c0 155.648-126.976 286.72-286.72 286.72z m0-512c-122.88 0-225.28 102.4-225.28 225.28S204.8 921.6 327.68 921.6s225.28-102.4 225.28-225.28S450.56 471.04 327.68 471.04z" fill="#606060" /><path d="M712.704 983.04c-77.824 0-155.648-32.768-208.896-90.112l45.056-40.96c77.824 81.92 200.704 94.208 294.912 32.768 102.4-69.632 126.976-212.992 53.248-315.392-36.864-53.248-98.304-90.112-163.84-94.208-53.248-4.096-106.496 8.192-151.552 40.96-16.384 12.288-32.768 28.672-45.056 45.056l-49.152-36.864c16.384-20.48 36.864-40.96 57.344-57.344 57.344-40.96 122.88-57.344 192.512-49.152 81.92 8.192 159.744 53.248 208.896 122.88 90.112 131.072 57.344 307.2-69.632 397.312-49.152 28.672-106.496 45.056-163.84 45.056z" fill="#606060" /><path d="M765.952 471.04l-49.152-36.864c32.768-40.96 49.152-94.208 49.152-147.456-4.096-65.536-32.768-126.976-86.016-167.936-98.304-77.824-237.568-61.44-315.392 36.864-57.344 73.728-65.536 176.128-16.384 253.952l-53.248 32.768c-61.44-102.4-53.248-233.472 20.48-323.584 98.304-122.88 278.528-147.456 401.408-49.152 65.536 53.248 106.496 131.072 110.592 212.992 4.096 69.632-16.384 135.168-61.44 188.416z" fill="#606060" /></svg>